<svg width="87" height="87" viewBox="0 0 87 87" fill="none" xmlns="http://www.w3.org/2000/svg">
<path d="M43.1214 43.1509C48.9696 28.3069 63.3063 2.38973 73.867 17.473C84.4276 32.5562 57.7702 40.8763 43.1214 43.1509Z" stroke="#4F2C62" stroke-width="5"/>
<path d="M43.3026 43.685C58.8646 47.2022 86.6644 57.4206 73.3672 70.1571C60.0701 82.8935 47.7837 57.8159 43.3026 43.685Z" stroke="#4F2C62" stroke-width="5"/>
<path d="M42.8965 43.6256C37.0483 58.4696 22.7116 84.3868 12.1509 69.3035C1.59026 54.2203 28.2477 45.9002 42.8965 43.6256Z" stroke="#4F2C62" stroke-width="5"/>
<path d="M42.7153 43.0916C27.1533 39.5744 -0.646467 29.356 12.6507 16.6196C25.9478 3.88308 38.2342 28.9607 42.7153 43.0916Z" stroke="#4F2C62" stroke-width="5"/>
<path d="M43.6938 43.229C58.6518 37.6789 87.5214 31.0614 83.3351 48.992C79.1489 66.9227 55.1633 52.6211 43.6938 43.229Z" stroke="#C5557B" stroke-width="5"/>
<path d="M43.417 43.7203C51.1823 57.6575 62.1232 85.1809 43.764 83.7769C25.4049 82.3729 35.883 56.4875 43.417 43.7203Z" stroke="#C5557B" stroke-width="5"/>
<path d="M43.1902 43.3783C28.2321 48.9284 -0.637387 55.5459 3.54882 37.6153C7.73504 19.6846 31.7206 33.9862 43.1902 43.3783Z" stroke="#C5557B" stroke-width="5"/>
<path d="M43.467 42.8869C35.7016 28.9497 24.7607 1.42634 43.1199 2.83036C61.4791 4.23438 51.001 30.1197 43.467 42.8869Z" stroke="#C5557B" stroke-width="5"/>
</svg>
